<?xml version="1.0" encoding="utf-8"?>
<!-- Generator: Adobe Illustrator 19.0.0, SVG Export Plug-In . SVG Version: 6.00 Build 0)  -->
<svg version="1.1" id="Layer_1" xmlns="http://www.w3.org/2000/svg" xmlns:xlink="http://www.w3.org/1999/xlink" x="0px" y="0px"
	 viewBox="0 0 1400 1400" style="enable-background:new 0 0 1400 1400;" xml:space="preserve">
<style type="text/css">
	.st0{clip-path:url(#XMLID_3_);fill:#FDBA28;}
	.st1{clip-path:url(#XMLID_3_);}
	.st2{fill:#FAA325;}
	.st3{fill:#1F2555;}
	.st4{fill:#F06723;}
	.st5{fill:#EB5324;}
	.st6{fill:#273871;}
	.st7{fill:#374885;}
	.st8{fill:#C8DEF3;}
	.st9{fill:#FFFFFF;}
	.st10{font-family:'PaytoneOne-Regular';}
	.st11{font-size:116.6266px;}
	.st12{font-family:'HammersmithOne-Regular';}
	.st13{font-size:47.3097px;}
	.st14{letter-spacing:53;}
	.st15{fill:#DD3526;}
	.st16{opacity:0.5;fill:#FFFFFF;}
</style>
<g id="XMLID_238_">
	<defs>
		<rect id="XMLID_239_" width="1400" height="1400"/>
	</defs>
	<clipPath id="XMLID_3_">
		<use xlink:href="#XMLID_239_"  style="overflow:visible;"/>
	</clipPath>
	<rect id="XMLID_1_" class="st0" width="1400" height="1400"/>
	<g id="XMLID_12_" class="st1">
		<g id="XMLID_483_">
			<g id="XMLID_504_">
				<path id="XMLID_505_" class="st2" d="M864.2,449.5c33.7,54.6,107.2,51.5,185.1,48.2c76.5-3.2,162.8-6.9,231.2,39.2l-3.8,3.4
					c27.4,31,56.7,35.6,79.1,32.5c8.6-1.2,16.7-4,24-8.1l74.4,84.1c63.8,72.1,57,182.7-15.1,246.4c-43.1,38.1-109.1,34.1-147.2-9
					c-24.5-27.7-66.9-30.3-94.6-5.8l-9.2,8.2c-4.5-0.3-9,1.1-12.6,4.3l-2.9,2.5c-24.6-14.3-56.6-12.1-79,7.8
					c-28,24.8-30.6,67.6-5.8,95.6c24.8,28,67.6,30.6,95.6,5.8c23.9-21.2,29.3-55.4,15-82.4l1.7-1.5c3.2-2.8,5.1-6.5,5.7-10.4
					l10.1-8.9c16.2-14.3,40.9-12.8,55.2,3.4c48.3,54.6,132,59.7,186.6,11.4c83.6-74,91.5-202.2,17.5-285.9l-74.4-84.1
					c5-6.7,8.8-14.4,11-22.8c1.1-4.3,2-8.8,2.5-13.6c1.9-19.9-3-43.9-25.1-68.8l-3.8,3.4c-37.4-73.5-23.2-158.8-10.7-234.3
					c12.7-76.9,24.8-149.5-25.3-189.6c-85-68.1-169.4-13.4-190.5,2.4c-10.3-4.1-22.4-2.4-31.2,5.4l-13.2,11.7c-5,4.4-5.4,12-1,17
					l10.9,12.3l13.2,15c4.4,5,12,5.4,17,1l13.2-11.7c8.7-7.7,11.9-19.2,9.4-29.7c18.4-13.9,85.8-56.9,154.7-1.7
					c37.3,29.9,27.1,91.7,15.2,163.2c-13.6,81.9-28.9,174.7,16.8,257.9l-30.9,27.3h0l-30.9,27.3c-77-55.5-171-51.6-253.9-48.1
					c-72.5,3.1-135,5.7-160.2-35c-46.4-75.2,4.6-136.9,20.6-153.4c10.1,3.8,21.9,2,30.6-5.7l13.2-11.7c5-4.4,5.4-12,1-17l-13.2-15
					l-10.9-12.3c-4.4-5-12-5.4-17-1L899,230.4c-8.8,7.8-12,19.7-9.2,30.3C871.5,279.8,807,356.9,864.2,449.5z"/>
			</g>
			<g id="XMLID_502_">
				<path id="XMLID_503_" class="st2" d="M293.6,48.3l33.3,15.9l33.3,15.9c13.3,6.4,29.2,0.7,35.5-12.5l0,0c1.3-2.7,2.1-5.5,2.4-8.3
					c1.4-11.1-4.4-22.2-15-27.3l-33.3-15.9L316.6,0.2C306-4.8,293.7-2.3,286,5.7c-2,2-3.6,4.4-4.9,7.1v0
					C274.7,26.1,280.3,42,293.6,48.3z"/>
			</g>
			<g id="XMLID_500_">
				<path id="XMLID_501_" class="st2" d="M477.3,251.2L477.3,251.2c12.7,7.5,29,3.2,36.5-9.5l18.7-31.8l18.7-31.8
					c7.5-12.7,3.2-29-9.5-36.5h0c-2.6-1.5-5.3-2.5-8-3.1c-10.9-2.3-22.5,2.5-28.5,12.6l-18.7,31.8l-18.7,31.8
					c-5.9,10.1-4.4,22.6,2.9,31C472.5,247.8,474.7,249.7,477.3,251.2z"/>
			</g>
			<g id="XMLID_498_">
				<path id="XMLID_499_" class="st2" d="M699.5,110.1l14.7,33.8c4.7,10.8,15.6,16.9,26.7,16c2.8-0.2,5.6-0.9,8.3-2.1h0
					c13.5-5.8,19.7-21.5,13.9-35.1l-14.7-33.8L733.8,55c-5.8-13.5-21.5-19.7-35.1-13.9l0,0c-2.7,1.2-5.1,2.8-7.2,4.6
					c-8.3,7.4-11.3,19.6-6.6,30.4L699.5,110.1z"/>
			</g>
			<g id="XMLID_496_">
				<path id="XMLID_497_" class="st2" d="M417.7,1238.4L249.7,969.8c-17.7-28.4-55.1-37-83.5-19.2l-135.6,84.9
					c-10.4,6.5-18.1,15.7-22.9,26.1c-8.2,17.9-7.5,39.5,3.7,57.4l168.1,268.6c17.7,28.4,55.1,37,83.5,19.2l135.6-84.9
					c19.2-12,29.4-33.1,28.4-54.2C426.4,1257.6,423.5,1247.5,417.7,1238.4z"/>
			</g>
			<g id="XMLID_494_">
				<path id="XMLID_495_" class="st2" d="M509.1,1343.1c-12.3-19.6-38.2-25.6-57.8-13.3c-6.1,3.8-10.9,8.9-14.2,14.8
					c-7.4,13-7.6,29.5,0.9,43.1c12.3,19.6,38.2,25.6,57.8,13.3c13.2-8.3,20.2-22.7,19.7-37.3
					C515.2,1356.6,513.1,1349.5,509.1,1343.1z"/>
			</g>
			<g id="XMLID_492_">
				<path id="XMLID_493_" class="st2" d="M627.5,1273.3c-12.3-19.6-38.2-25.6-57.8-13.3c-6.1,3.8-10.9,8.9-14.2,14.8
					c-7.4,13-7.6,29.5,0.9,43.1c12.3,19.6,38.2,25.6,57.8,13.3c13.2-8.3,20.2-22.7,19.7-37.3
					C633.5,1286.8,631.5,1279.7,627.5,1273.3z"/>
			</g>
			<g id="XMLID_490_">
				<path id="XMLID_491_" class="st2" d="M528.5,1198.7c-12.3-19.6-38.2-25.6-57.8-13.3c-6.1,3.8-10.9,8.9-14.2,14.8
					c-7.4,13-7.6,29.5,0.9,43.1c12.3,19.6,38.2,25.6,57.8,13.3c13.2-8.3,20.2-22.7,19.7-37.3
					C534.6,1212.2,532.5,1205.1,528.5,1198.7z"/>
			</g>
			<g id="XMLID_488_">
				<path id="XMLID_489_" class="st2" d="M1569.3,1214.9l-47.9-78.1l0,0l-3.6-5.8l-52.7-85.9c-4.2-6.8-13.1-8.9-19.9-4.8
					l-561.7,344.4c-6.8,4.2-8.9,13.1-4.8,19.9l45.6,74.4l0,0l7.1,11.5l51.4,83.9c4.2,6.8,13.1,8.9,19.9,4.8l561.7-344.4
					C1571.4,1230.6,1573.5,1221.7,1569.3,1214.9z"/>
			</g>
			<g id="XMLID_486_">
				<path id="XMLID_487_" class="st2" d="M117.6,874.4l292.6-492.4c12.3-20.7,5.5-47.5-15.2-59.8l-22.5-13.4c0,0,0,0,0,0l-132-78.4
					l1.3-2.1c13.6-1.3,26.4-8.8,33.9-21.4c12.5-21,5.6-48-15.4-60.5c-21-12.5-48-5.6-60.5,15.4c-7.6,12.9-8,28-2.3,40.7l-1.1,1.8
					L47.7,115.9c-20.7-12.3-47.5-5.5-59.8,15.2l-292.6,492.4c-12.3,20.7-5.5,47.5,15.2,59.8L57.8,889.7
					C78.5,902,105.3,895.2,117.6,874.4z"/>
			</g>
			<g id="XMLID_484_">
				<path id="XMLID_485_" class="st2" d="M942,1206.8c18-8.9,38.8-10.5,58.2-5.3l9.8,2.6c6.8,1.8,14-1.9,16.1-8.5
					c2.3-7.1-1.9-14.6-9-16.5l-10.1-2.7c-19.4-5.2-36.7-16.8-47.8-33.5c-5.7-8.6-14.5-15.2-25.2-18l-245.5-65.2
					c-23.5-6.2-47.6,7.7-53.8,31.2s7.7,47.6,31.2,53.8l245.5,65.2C921.9,1212.8,932.8,1211.4,942,1206.8z"/>
			</g>
		</g>
	</g>
	<g id="XMLID_7_" class="st1">
		<g id="XMLID_6_">
			<g id="XMLID_308_">
				<path id="XMLID_309_" class="st3" d="M1433.7,892.1c-54.6,48.3-138.3,43.2-186.6-11.4c-14.3-16.1-39.1-17.7-55.2-3.4l-30.7,27.1
					l-18.5-20.9l30.7-27.1c27.7-24.5,70.1-21.9,94.6,5.8c38.1,43.1,104.1,47.1,147.2,9c72.1-63.8,78.9-174.3,15.1-246.4l-82.5-93.3
					l20.9-18.5l82.5,93.3C1525.2,689.9,1517.3,818.1,1433.7,892.1z"/>
			</g>
		</g>
		<circle id="XMLID_9_" class="st3" cx="1114.5" cy="930" r="67.7"/>
		<circle id="XMLID_15_" class="st4" cx="1114.5" cy="930" r="29"/>
		<path id="XMLID_10_" class="st3" d="M1176.1,896.7l-7.3,6.5l-24.6-27.8l7.3-6.5c7.2-6.3,18.1-5.7,24.5,1.5l1.6,1.8
			C1183.9,879.4,1183.3,890.4,1176.1,896.7z"/>
		<g id="XMLID_5_">
			<g id="XMLID_306_">
				<path id="XMLID_307_" class="st3" d="M1262.9,517.4c-69.3-50.8-158.8-47-237.6-43.7c-77.9,3.3-151.4,6.4-185.1-48.2
					c-65.7-106.5,29.2-192.4,30.2-193.2l18.5,20.9c-3.2,2.9-78.2,71.4-24.9,157.7c25.1,40.7,87.7,38,160.2,35
					c83.5-3.5,178.1-7.5,255.3,49.1L1262.9,517.4z"/>
			</g>
		</g>
		<path id="XMLID_20_" class="st5" d="M915.1,225.1l-13.2,11.7c-9.9,8.8-23.9,9.9-34.8,3.7c1.3,3.1,3,6,5.4,8.6v0
			c11.1,12.5,30.2,13.7,42.7,2.6l13.2-11.7c5-4.4,5.4-12,1-17l-13.2-15C920.5,213.1,920.1,220.7,915.1,225.1z"/>
		<path id="XMLID_22_" class="st4" d="M888.2,194.7L875,206.4c-9.9,8.8-12.7,22.5-8,34.1c10.9,6.1,24.9,5,34.8-3.7l13.2-11.7
			c5-4.4,5.4-12,1-17l-10.9-12.3C900.8,190.8,893.2,190.3,888.2,194.7z"/>
		<g id="XMLID_41_">
			<g id="XMLID_310_">
				<path id="XMLID_311_" class="st3" d="M1365,427.1c-42-75-27.3-163.3-14.4-241.2c12.7-76.9,24.8-149.5-25.3-189.6
					c-97.7-78.2-194.5,5.6-195.5,6.4l18.5,20.9c3.2-2.8,80.4-68.9,159.5-5.6c37.3,29.9,27.1,91.7,15.2,163.2
					c-13.7,82.4-29.1,175.8,17.6,259.4L1365,427.1z"/>
			</g>
		</g>
		<path id="XMLID_23_" class="st6" d="M1337.7,525.3c-19.8,2.7-45-0.6-69.5-22.7l-15.6,13.8c27.4,31,56.7,35.6,79.1,32.5
			c26.9-3.7,49-23.3,56-49.5c1.1-4.3,2-8.8,2.5-13.6C1380.9,506.8,1361.1,522.1,1337.7,525.3z"/>
		<path id="XMLID_25_" class="st7" d="M1365.1,416.8l-56.2,49.7l0,0l-40.7,36c24.5,22.2,49.7,25.5,69.5,22.7
			c23.4-3.2,43.1-18.5,52.5-39.6C1392.1,465.8,1387.2,441.7,1365.1,416.8z"/>
		<path id="XMLID_19_" class="st5" d="M1117.2,46.3l13.2-11.7c9.9-8.8,12.7-22.5,8-34.1c2.9,1.6,5.6,3.7,7.9,6.4l0,0
			c11.1,12.5,9.9,31.6-2.6,42.7l-13.2,11.7c-5,4.4-12.6,3.9-17-1l-13.2-15C1104.6,50.2,1112.3,50.7,1117.2,46.3z"/>
		<path id="XMLID_16_" class="st4" d="M1090.4,15.9l13.2-11.7c9.9-8.8,23.9-9.9,34.8-3.7c4.7,11.6,1.9,25.4-8,34.1l-13.2,11.7
			c-5,4.4-12.6,3.9-17-1l-10.9-12.3C1084.9,27.9,1085.4,20.3,1090.4,15.9z"/>
	</g>
	<g id="XMLID_8_" class="st1">
		<path id="XMLID_28_" class="st3" d="M276.9,9c-10.6-5.1-16.3-16.2-15-27.3c-2,2-3.6,4.4-4.9,7.1l0,0c-6.4,13.3-0.7,29.2,12.5,35.5
			l33.3,15.9l7.3-15.3L276.9,9z"/>
		<path id="XMLID_30_" class="st8" d="M343.5,40.8l-33.3-15.9l-7.3,15.3l33.3,15.9c13.3,6.4,29.2,0.7,35.5-12.5l0,0
			c1.3-2.7,2.1-5.5,2.4-8.3C366.3,43.3,354.1,45.9,343.5,40.8z"/>
		<path id="XMLID_36_" class="st6" d="M276.9,9l33.3,15.9l15.7-32.8l-33.3-15.9c-10.6-5.1-22.9-2.5-30.6,5.5
			C260.6-7.2,266.3,3.9,276.9,9z"/>
		<path id="XMLID_52_" class="st9" d="M359.1,8.1L325.9-7.8l-15.7,32.8l33.3,15.9c10.6,5.1,22.9,2.5,30.6-5.5
			C375.4,24.3,369.7,13.1,359.1,8.1z"/>
	</g>
	<g id="XMLID_18_" class="st1">
		<path id="XMLID_66_" class="st5" d="M475.1,209.1c-5.9,10.1-17.6,14.9-28.5,12.6c1.8,2.1,4.1,4,6.6,5.5l0,0
			c12.7,7.5,29,3.2,36.5-9.5l18.7-31.8l-14.6-8.6L475.1,209.1z"/>
		<path id="XMLID_31_" class="st8" d="M512.4,145.5l-18.7,31.8l14.6,8.6l18.7-31.8c7.5-12.7,3.2-29-9.5-36.5l0,0
			c-2.6-1.5-5.3-2.5-8-3.1C516.9,122.9,518.4,135.4,512.4,145.5z"/>
		<path id="XMLID_27_" class="st4" d="M475.1,209.1l18.7-31.8l-31.3-18.4l-18.7,31.8c-5.9,10.1-4.4,22.6,2.9,31
			C457.5,224,469.1,219.2,475.1,209.1z"/>
		<path id="XMLID_21_" class="st9" d="M481.1,127.1l-18.7,31.8l31.3,18.4l18.7-31.8c5.9-10.1,4.4-22.6-2.9-31
			C498.7,112.2,487.1,117,481.1,127.1z"/>
	</g>
	<g id="XMLID_24_" class="st1">
		<path id="XMLID_81_" class="st5" d="M723.5,105.5c4.7,10.8,1.6,23-6.6,30.4c2.8-0.2,5.6-0.9,8.3-2.1l0,0
			c13.5-5.8,19.7-21.5,13.9-35.1l-14.7-33.8l-15.6,6.7L723.5,105.5z"/>
		<path id="XMLID_73_" class="st3" d="M694.2,37.8l14.7,33.8l15.6-6.7L709.8,31c-5.8-13.5-21.5-19.7-35.1-13.9l0,0
			c-2.7,1.2-5.1,2.8-7.2,4.6C678.6,20.9,689.6,27,694.2,37.8z"/>
		<path id="XMLID_67_" class="st4" d="M723.5,105.5l-14.7-33.8l-33.3,14.4l14.7,33.8c4.7,10.8,15.6,16.9,26.7,16
			C725.2,128.4,728.2,116.2,723.5,105.5z"/>
		<path id="XMLID_26_" class="st6" d="M660.9,52.2l14.7,33.8l33.3-14.4l-14.7-33.8c-4.7-10.8-15.6-16.9-26.7-16
			C659.2,29.3,656.2,41.4,660.9,52.2z"/>
	</g>
	<g id="XMLID_17_" class="st1">
		<text transform="matrix(1 0 0 1 317.003 709.9667)" class="st9 st10 st11">HEALTH CARE</text>
	</g>
	<g id="XMLID_33_" class="st1">
		<text transform="matrix(1 0 0 1 317.0031 770.2448)" class="st9 st12 st13 st14">BACKGROUND</text>
	</g>
	<g id="XMLID_89_" class="st1">
		<path id="XMLID_79_" class="st8" d="M244.4,1354.6c-28.4,17.7-65.7,9.1-83.5-19.2L-7.2,1066.7c-5.7-9.1-8.7-19.2-9.2-29.3
			c-8.2,17.9-7.5,39.5,3.7,57.4l168.1,268.6c17.7,28.4,55.1,37,83.5,19.2l135.6-84.9c19.2-12,29.4-33.1,28.4-54.2
			c-4.8,10.4-12.5,19.5-22.9,26.1L244.4,1354.6z"/>
		<path id="XMLID_82_" class="st9" d="M225.7,945.8c-17.7-28.4-55.1-37-83.5-19.2L6.6,1011.4c-10.4,6.5-18.1,15.7-22.9,26.1
			c0.5,10.1,3.4,20.1,9.2,29.3l168.1,268.6c17.7,28.4,55.1,37,83.5,19.2l135.6-84.9c10.4-6.5,18.1-15.7,22.9-26.1
			c-0.5-10.1-3.4-20.1-9.2-29.3L225.7,945.8z"/>
		<g id="XMLID_68_">
			<path id="XMLID_69_" class="st15" d="M37.8,1076.2c-4-6.4-6.1-13.5-6.4-20.6c-7.4,13-7.6,29.5,0.9,43.1
				c12.3,19.6,38.2,25.6,57.8,13.3c13.2-8.3,20.2-22.7,19.7-37.3c-3.3,5.8-8.1,11-14.2,14.8C76,1101.8,50.1,1095.8,37.8,1076.2z"/>
			<path id="XMLID_84_" class="st4" d="M45.7,1040.8c-6.1,3.8-10.9,8.9-14.2,14.8c0.3,7.1,2.3,14.2,6.4,20.6
				c12.3,19.6,38.2,25.6,57.8,13.3c6.1-3.8,10.9-8.9,14.2-14.8c-0.3-7.1-2.3-14.2-6.4-20.6C91.2,1034.5,65.3,1028.5,45.7,1040.8z"/>
			<path id="XMLID_62_" class="st16" d="M43.6,1048c0,0,8.7-7.8,21.4-8.3l3.8,8.4c0,0-10.1,2.6-19.2,9.4L43.6,1048z"/>
			<path id="XMLID_80_" class="st16" d="M68.3,1038.7l3.6,8.9c0,0,2.4-0.6,3.6-0.5l-1.4-8.4C74.1,1038.7,71,1038.3,68.3,1038.7z"/>
			<path id="XMLID_85_" class="st16" d="M76.1,1039l0.9,8.4c0,0,1,0.1,2.1,0.4l0.4-8.2C79.5,1039.6,77.4,1038.8,76.1,1039z"/>
		</g>
		<g id="XMLID_92_">
			<path id="XMLID_119_" class="st15" d="M142.4,1013.7c-4-6.4-6.1-13.5-6.4-20.6c-7.4,13-7.6,29.5,0.9,43.1
				c12.3,19.6,38.2,25.6,57.8,13.3c13.2-8.3,20.2-22.7,19.7-37.3c-3.3,5.8-8.1,11-14.2,14.8C180.6,1039.3,154.7,1033.3,142.4,1013.7
				z"/>
			<path id="XMLID_116_" class="st4" d="M150.2,978.3c-6.1,3.8-10.9,8.9-14.2,14.8c0.3,7.1,2.3,14.2,6.4,20.6
				c12.3,19.6,38.2,25.6,57.8,13.3c6.1-3.8,10.9-8.9,14.2-14.8c-0.3-7.1-2.3-14.2-6.4-20.6C195.8,972,169.9,966,150.2,978.3z"/>
			<path id="XMLID_112_" class="st16" d="M148.1,985.5c0,0,8.7-7.8,21.4-8.3l3.8,8.4c0,0-10.1,2.6-19.2,9.4L148.1,985.5z"/>
			<path id="XMLID_104_" class="st16" d="M172.9,976.2l3.6,8.9c0,0,2.4-0.6,3.6-0.5l-1.4-8.4C178.7,976.2,175.5,975.8,172.9,976.2z"
				/>
			<path id="XMLID_94_" class="st16" d="M180.6,976.5l0.9,8.4c0,0,1,0.1,2.1,0.4l0.4-8.2C184.1,977.1,181.9,976.3,180.6,976.5z"/>
		</g>
		<g id="XMLID_138_">
			<path id="XMLID_151_" class="st15" d="M103.9,1186.1c-4-6.4-6.1-13.5-6.4-20.6c-7.4,13-7.6,29.5,0.9,43.1
				c12.3,19.6,38.2,25.6,57.8,13.3c13.2-8.3,20.2-22.7,19.7-37.3c-3.3,5.8-8.1,11-14.2,14.8C142.1,1211.8,116.2,1205.8,103.9,1186.1
				z"/>
			<path id="XMLID_148_" class="st4" d="M111.7,1150.8c-6.1,3.8-10.9,8.9-14.2,14.8c0.3,7.1,2.3,14.2,6.4,20.6
				c12.3,19.6,38.2,25.6,57.8,13.3c6.1-3.8,10.9-8.9,14.2-14.8c-0.3-7.1-2.3-14.2-6.4-20.6C157.3,1144.5,131.4,1138.5,111.7,1150.8z
				"/>
			<path id="XMLID_145_" class="st16" d="M109.6,1158c0,0,8.7-7.8,21.4-8.3l3.8,8.4c0,0-10.1,2.6-19.2,9.4L109.6,1158z"/>
			<path id="XMLID_142_" class="st16" d="M134.4,1148.7l3.6,8.9c0,0,2.4-0.6,3.6-0.5l-1.4-8.4C140.2,1148.7,137,1148.3,134.4,1148.7
				z"/>
			<path id="XMLID_139_" class="st16" d="M142.1,1149l0.9,8.4c0,0,1,0.1,2.1,0.4l0.4-8.2C145.6,1149.6,143.4,1148.7,142.1,1149z"/>
		</g>
		<g id="XMLID_122_">
			<path id="XMLID_135_" class="st15" d="M208.4,1123.7c-4-6.4-6.1-13.5-6.4-20.6c-7.4,13-7.6,29.5,0.9,43.1
				c12.3,19.6,38.2,25.6,57.8,13.3c13.2-8.3,20.2-22.7,19.7-37.3c-3.3,5.8-8.1,11-14.2,14.8C246.6,1149.3,220.7,1143.3,208.4,1123.7
				z"/>
			<path id="XMLID_132_" class="st4" d="M216.3,1088.3c-6.1,3.8-10.9,8.9-14.2,14.8c0.3,7.1,2.3,14.2,6.4,20.6
				c12.3,19.6,38.2,25.6,57.8,13.3c6.1-3.8,10.9-8.9,14.2-14.8c-0.3-7.1-2.3-14.2-6.4-20.6C261.8,1082,235.9,1076,216.3,1088.3z"/>
			<path id="XMLID_129_" class="st16" d="M214.2,1095.5c0,0,8.7-7.8,21.4-8.3l3.8,8.4c0,0-10.1,2.6-19.2,9.4L214.2,1095.5z"/>
			<path id="XMLID_126_" class="st16" d="M239,1086.2l3.6,8.9c0,0,2.4-0.6,3.6-0.5l-1.4-8.4C244.7,1086.2,241.6,1085.8,239,1086.2z"
				/>
			<path id="XMLID_123_" class="st16" d="M246.7,1086.5l0.9,8.4c0,0,1,0.1,2.1,0.4l0.4-8.2C250.1,1087.1,248,1086.3,246.7,1086.5z"
				/>
		</g>
		<g id="XMLID_170_">
			<path id="XMLID_183_" class="st15" d="M171.2,1293.8c-4-6.4-6.1-13.5-6.4-20.6c-7.4,13-7.6,29.5,0.9,43.1
				c12.3,19.6,38.2,25.6,57.8,13.3c13.2-8.3,20.2-22.7,19.7-37.3c-3.3,5.8-8.1,11-14.2,14.8C209.4,1319.4,183.5,1313.5,171.2,1293.8
				z"/>
			<path id="XMLID_180_" class="st4" d="M179.1,1258.4c-6.1,3.8-10.9,8.9-14.2,14.8c0.3,7.1,2.3,14.2,6.4,20.6
				c12.3,19.6,38.2,25.6,57.8,13.3c6.1-3.8,10.9-8.9,14.2-14.8c-0.3-7.1-2.3-14.2-6.4-20.6C224.6,1252.1,198.7,1246.1,179.1,1258.4z
				"/>
			<path id="XMLID_177_" class="st16" d="M177,1265.7c0,0,8.7-7.8,21.4-8.3l3.8,8.4c0,0-10.1,2.6-19.2,9.4L177,1265.7z"/>
			<path id="XMLID_174_" class="st16" d="M201.8,1256.4l3.6,8.9c0,0,2.4-0.6,3.6-0.5l-1.4-8.4
				C207.5,1256.4,204.4,1255.9,201.8,1256.4z"/>
			<path id="XMLID_171_" class="st16" d="M209.5,1256.6l0.9,8.4c0,0,1,0.1,2.1,0.4l0.4-8.2C212.9,1257.3,210.8,1256.4,209.5,1256.6z
				"/>
		</g>
		<g id="XMLID_154_">
			<path id="XMLID_167_" class="st15" d="M275.8,1231.3c-4-6.4-6.1-13.5-6.4-20.6c-7.4,13-7.6,29.5,0.9,43.1
				c12.3,19.6,38.2,25.6,57.8,13.3c13.2-8.3,20.2-22.7,19.7-37.3c-3.3,5.8-8.1,11-14.2,14.8C314,1256.9,288.1,1251,275.8,1231.3z"/>
			<path id="XMLID_164_" class="st4" d="M283.6,1196c-6.1,3.8-10.9,8.9-14.2,14.8c0.3,7.1,2.3,14.2,6.4,20.6
				c12.3,19.6,38.2,25.6,57.8,13.3c6.1-3.8,10.9-8.9,14.2-14.8c-0.3-7.1-2.3-14.2-6.4-20.6C329.2,1189.6,303.3,1183.7,283.6,1196z"
				/>
			<path id="XMLID_161_" class="st16" d="M281.5,1203.2c0,0,8.7-7.8,21.4-8.3l3.8,8.4c0,0-10.1,2.6-19.2,9.4L281.5,1203.2z"/>
			<path id="XMLID_158_" class="st16" d="M306.3,1193.9l3.6,8.9c0,0,2.4-0.6,3.6-0.5l-1.4-8.4
				C312.1,1193.9,308.9,1193.5,306.3,1193.9z"/>
			<path id="XMLID_155_" class="st16" d="M314,1194.1l0.9,8.4c0,0,1,0.1,2.1,0.4l0.4-8.2C317.5,1194.8,315.3,1193.9,314,1194.1z"/>
		</g>
	</g>
	<g id="XMLID_93_" class="st1">
		<path id="XMLID_199_" class="st15" d="M419.4,1341.1c-4-6.4-6.1-13.5-6.4-20.6c-7.4,13-7.6,29.5,0.9,43.1
			c12.3,19.6,38.2,25.6,57.8,13.3c13.2-8.3,20.2-22.7,19.7-37.3c-3.3,5.8-8.1,11-14.2,14.8C457.6,1366.7,431.7,1360.8,419.4,1341.1z
			"/>
		<path id="XMLID_196_" class="st4" d="M427.3,1305.7c-6.1,3.8-10.9,8.9-14.2,14.8c0.3,7.1,2.3,14.2,6.4,20.6
			c12.3,19.6,38.2,25.6,57.8,13.3c6.1-3.8,10.9-8.9,14.2-14.8c-0.3-7.1-2.3-14.2-6.4-20.6C472.8,1299.4,446.9,1293.5,427.3,1305.7z"
			/>
		<path id="XMLID_101_" class="st16" d="M425.2,1313c0,0,8.7-7.8,21.4-8.3l3.8,8.4c0,0-10.1,2.6-19.2,9.4L425.2,1313z"/>
		<path id="XMLID_98_" class="st16" d="M449.9,1303.7l3.6,8.9c0,0,2.4-0.6,3.6-0.5l-1.4-8.4C455.7,1303.7,452.6,1303.2,449.9,1303.7
			z"/>
		<path id="XMLID_95_" class="st16" d="M457.7,1303.9l0.9,8.4c0,0,1,0.1,2.1,0.4l0.4-8.2C461.1,1304.6,459,1303.7,457.7,1303.9z"/>
	</g>
	<g id="XMLID_203_" class="st1">
		<path id="XMLID_216_" class="st15" d="M537.8,1271.3c-4-6.4-6.1-13.5-6.4-20.6c-7.4,13-7.6,29.5,0.9,43.1
			c12.3,19.6,38.2,25.6,57.8,13.3c13.2-8.3,20.2-22.7,19.7-37.3c-3.3,5.8-8.1,11-14.2,14.8C576,1296.9,550.1,1291,537.8,1271.3z"/>
		<path id="XMLID_213_" class="st4" d="M545.6,1236c-6.1,3.8-10.9,8.9-14.2,14.8c0.3,7.1,2.3,14.2,6.4,20.6
			c12.3,19.6,38.2,25.6,57.8,13.3c6.1-3.8,10.9-8.9,14.2-14.8c-0.3-7.1-2.3-14.2-6.4-20.6C591.2,1229.6,565.3,1223.7,545.6,1236z"/>
		<path id="XMLID_210_" class="st16" d="M543.5,1243.2c0,0,8.7-7.8,21.4-8.3l3.8,8.4c0,0-10.1,2.6-19.2,9.4L543.5,1243.2z"/>
		<path id="XMLID_207_" class="st16" d="M568.3,1233.9l3.6,8.9c0,0,2.4-0.6,3.6-0.5l-1.4-8.4
			C574.1,1233.9,570.9,1233.5,568.3,1233.9z"/>
		<path id="XMLID_204_" class="st16" d="M576,1234.1l0.9,8.4c0,0,1,0.1,2.1,0.4l0.4-8.2C579.4,1234.8,577.3,1233.9,576,1234.1z"/>
	</g>
	<g id="XMLID_219_" class="st1">
		<path id="XMLID_232_" class="st15" d="M438.8,1196.7c-4-6.4-6.1-13.5-6.4-20.6c-7.4,13-7.6,29.5,0.9,43.1
			c12.3,19.6,38.2,25.6,57.8,13.3c13.2-8.3,20.2-22.7,19.7-37.3c-3.3,5.8-8.1,11-14.2,14.8C477,1222.4,451.1,1216.4,438.8,1196.7z"
			/>
		<path id="XMLID_229_" class="st4" d="M446.6,1161.4c-6.1,3.8-10.9,8.9-14.2,14.8c0.3,7.1,2.3,14.2,6.4,20.6
			c12.3,19.6,38.2,25.6,57.8,13.3c6.1-3.8,10.9-8.9,14.2-14.8c-0.3-7.1-2.3-14.2-6.4-20.6C492.2,1155,466.3,1149.1,446.6,1161.4z"/>
		<path id="XMLID_226_" class="st16" d="M444.5,1168.6c0,0,8.7-7.8,21.4-8.3l3.8,8.4c0,0-10.1,2.6-19.2,9.4L444.5,1168.6z"/>
		<path id="XMLID_223_" class="st16" d="M469.3,1159.3l3.6,8.9c0,0,2.4-0.6,3.6-0.5l-1.4-8.4
			C475.1,1159.3,471.9,1158.9,469.3,1159.3z"/>
		<path id="XMLID_220_" class="st16" d="M477,1159.5l0.9,8.4c0,0,1,0.1,2.1,0.4l0.4-8.2C480.5,1160.2,478.3,1159.3,477,1159.5z"/>
	</g>
	<g id="XMLID_236_" class="st1">
		<path id="XMLID_235_" class="st9" d="M1540.5,1210.7l-561.7,344.4c-6.8,4.2-15.7,2-19.9-4.8l-104.1-169.8
			c-4.2-6.8-2-15.7,4.8-19.9l561.7-344.4c6.8-4.2,15.7-2,19.9,4.8l104.1,169.8C1549.5,1197.7,1547.4,1206.6,1540.5,1210.7z"/>
		
			<rect id="XMLID_237_" x="855.1" y="1273.7" transform="matrix(0.8525 -0.5227 0.5227 0.8525 -494.2816 816.1069)" class="st8" width="687.8" height="20.3"/>
		<polygon id="XMLID_240_" class="st8" points="1259.4,1211.3 1283.8,1251 1131.2,1344.6 1106.8,1304.9 1092.3,1313.8 
			1123.9,1365.5 1305.7,1254 1274,1202.3 		"/>
		
			<rect id="XMLID_242_" x="1172" y="1188.4" transform="matrix(0.5227 0.8525 -0.8525 0.5227 1659.9244 -409.0774)" class="st9" width="46.6" height="179.1"/>
	</g>
	<g id="XMLID_254_" class="st1">
		<path id="XMLID_241_" class="st6" d="M33.8,865.7l-347.2-206.3c-20.7-12.3-27.5-39.1-15.2-59.8l292.6-492.4
			C-23.8,86.4,3,79.6,23.7,91.9L371,298.2c20.7,12.3,27.5,39.1,15.2,59.8L93.6,850.4C81.3,871.2,54.5,878,33.8,865.7z"/>
		<path id="XMLID_244_" class="st9" d="M33.9,814.1l-302.1-179.6c-15.2-9-20.2-28.7-11.2-43.9L2.4,116.4c9-15.2,28.7-20.2,43.9-11.2
			l302.1,179.6c15.2,9,20.2,28.7,11.2,43.9L77.8,802.9C68.8,818.1,49.1,823.1,33.9,814.1z"/>
		<path id="XMLID_243_" class="st4" d="M237,298.8l-149.8-89c-4.9-2.9-6.5-9.3-3.6-14.2l15.2-25.6c2.9-4.9,9.3-6.5,14.2-3.6
			l149.8,89c4.9,2.9,6.5,9.3,3.6,14.2l-15.2,25.6C248.2,300.1,241.9,301.8,237,298.8z"/>
		
			<rect id="XMLID_245_" x="167.9" y="178" transform="matrix(0.8597 0.5109 -0.5109 0.8597 126.6805 -71.5473)" class="st4" width="51.2" height="33.6"/>
		<circle id="XMLID_246_" class="st4" cx="213.7" cy="160.3" r="44.1"/>
		<circle id="XMLID_249_" class="st5" cx="214" cy="160.5" r="24.8"/>
		<circle id="XMLID_253_" class="st15" cx="214" cy="160.5" r="12.9"/>
		
			<rect id="XMLID_247_" x="-31.1" y="292.2" transform="matrix(0.8597 0.5109 -0.5109 0.8597 172.2866 -26.7689)" class="st8" width="332" height="16"/>
		
			<rect id="XMLID_256_" x="-56.7" y="335.2" transform="matrix(0.8597 0.5109 -0.5109 0.8597 190.6605 -7.6875)" class="st8" width="332" height="16"/>
		
			<rect id="XMLID_270_" x="-82.7" y="379" transform="matrix(0.8597 0.5109 -0.5109 0.8597 209.4018 11.7757)" class="st8" width="332" height="16"/>
		
			<rect id="XMLID_262_" x="-108.3" y="422" transform="matrix(0.8597 0.5109 -0.5109 0.8597 227.7756 30.8572)" class="st8" width="332" height="16"/>
		
			<rect id="XMLID_285_" x="-135" y="467" transform="matrix(0.8597 0.5109 -0.5109 0.8597 247.0069 50.8291)" class="st8" width="332" height="16"/>
		
			<rect id="XMLID_282_" x="-160.6" y="510" transform="matrix(0.8597 0.5109 -0.5109 0.8597 265.3807 69.9106)" class="st8" width="332" height="16"/>
		
			<rect id="XMLID_279_" x="-186.6" y="553.8" transform="matrix(0.8597 0.5109 -0.5109 0.8597 284.122 89.3737)" class="st8" width="332" height="16"/>
		
			<rect id="XMLID_276_" x="-212.2" y="596.8" transform="matrix(0.8597 0.5109 -0.5109 0.8597 302.4958 108.4552)" class="st8" width="332" height="16"/>
	</g>
	<g id="XMLID_257_" class="st1">
		<path id="XMLID_259_" class="st9" d="M610.5,1066.9L610.5,1066.9c-6.2,23.5,7.7,47.6,31.2,53.8l245.5,65.2
			c10.8,2.9,21.6,1.5,30.9-3.1c18-8.9,38.8-10.5,58.2-5.3l9.8,2.6c6.8,1.8,14-1.9,16.1-8.5c2.3-7.1-1.9-14.6-9-16.5l-10.1-2.7
			c-19.4-5.2-36.7-16.8-47.8-33.5c-5.7-8.6-14.5-15.2-25.2-18l-245.5-65.2C640.8,1029.4,616.7,1043.4,610.5,1066.9z"/>
		<path id="XMLID_255_" class="st8" d="M910.1,1146.5L910.1,1146.5c-1.6,6.1-7.9,9.8-14.1,8.2l-247.4-65.8
			c-6.1-1.6-9.8-7.9-8.2-14.1l0,0c1.6-6.1,7.9-9.8,14.1-8.2l247.4,65.8C908.1,1134.1,911.7,1140.4,910.1,1146.5z"/>
		<path id="XMLID_258_" class="st4" d="M910.1,1146.5L910.1,1146.5c-1.6,6.1-7.9,9.8-14.1,8.2l-97.6-25.9c-6.1-1.6-9.8-7.9-8.2-14.1
			l0,0c1.6-6.1,7.9-9.8,14.1-8.2l97.6,25.9C908.1,1134.1,911.7,1140.4,910.1,1146.5z"/>
	</g>
</g>
</svg>
