<?xml version="1.0" encoding="UTF-8"?>
<!-- Generator: Adobe Illustrator 26.0.3, SVG Export Plug-In . SVG Version: 6.00 Build 0)  -->
<svg xmlns="http://www.w3.org/2000/svg" xmlns:xlink="http://www.w3.org/1999/xlink" version="1.1" id="Ebene_1" x="0px" y="0px" viewBox="0 0 369 140" style="enable-background:new 0 0 369 140;" xml:space="preserve">
<style type="text/css">
	.st0{fill:#005898;}
	.st1{fill:#0072B5;}
	.st2{fill:#009DE2;}
	.st3{fill:#90C261;}
	.st4{fill:#D2D700;}
	.st5{fill:#FFEC00;}
</style>
<g>
	<path class="st0" d="M4.3,70.2c0-28.7,23.3-52,52-52s52,23.3,52,52c0,28.7-23.3,52-52,52C27.5,122.2,4.3,98.9,4.3,70.2"></path>
	<polygon class="st1" points="56.2,18.2 15.6,37.8 5.6,81.8 33.7,117.1 78.8,117.1 106.9,81.8 96.9,37.8  "></polygon>
	<polygon class="st2" points="33.7,117.1 11.1,78 33.7,38.9 78.8,38.9 101.4,78 78.8,117.1  "></polygon>
	<polygon class="st3" points="33.7,117.1 19.7,74.1 56.3,47.6 92.8,74.1 78.8,117.1  "></polygon>
	<rect x="33.7" y="71.9" class="st4" width="45.1" height="45.1"></rect>
	<polygon class="st5" points="56.6,78.1 78.8,117.1 33.7,117.1  "></polygon>
	<polygon class="st1" points="126.8,31.5 128.9,31.5 133.9,46 138.7,31.5 140.3,31.5 145.1,46 150.1,31.5 152.1,31.5 145.9,49.1    144.2,49.1 139.4,34.9 134.6,49.1 133,49.1  "></polygon>
	<path class="st1" d="M169.4,40.3L169.4,40.3c0-4-2.9-7.3-6.9-7.3c-4,0-6.8,3.2-6.8,7.2v0c0,4,2.9,7.2,6.9,7.2   C166.6,47.4,169.4,44.2,169.4,40.3 M153.6,40.3L153.6,40.3c0-4.9,3.6-9.1,8.9-9.1c5.3,0,8.9,4.2,8.9,9v0c0,4.8-3.6,9-8.9,9   C157.2,49.3,153.6,45.1,153.6,40.3"></path>
	<path class="st1" d="M183.1,40.4c2.6,0,4.5-1.3,4.5-3.6v0c0-2.1-1.6-3.4-4.5-3.4h-5.4v7.1L183.1,40.4L183.1,40.4z M175.7,31.5h7.5   c2.1,0,3.9,0.6,5,1.7c0.8,0.8,1.3,2.1,1.3,3.4v0c0,2.9-2,4.6-4.7,5.1l5.4,7.1h-2.4l-5.1-6.8h-5V49h-2L175.7,31.5L175.7,31.5z"></path>
	<polygon class="st1" points="193.9,31.5 195.9,31.5 195.9,47.1 205.7,47.1 205.7,49 193.9,49  "></polygon>
	<path class="st1" d="M210.9,33.3v13.8h4.1c4.4,0,7.2-3,7.2-6.9v0c0-3.9-2.8-6.9-7.2-6.9H210.9z M208.9,31.5h6.1   c5.5,0,9.3,3.8,9.3,8.7v0c0,4.9-3.8,8.7-9.3,8.7h-6.1V31.5z"></path>
	<polygon class="st1" points="128.1,61.5 130.1,61.5 130.1,69.2 140.2,69.2 140.2,61.5 142.2,61.5 142.2,78.9 140.2,78.9    140.2,71.1 130.1,71.1 130.1,78.9 128.1,78.9  "></polygon>
	<polygon class="st1" points="146.8,61.5 159.4,61.5 159.4,63.3 148.8,63.3 148.8,69.2 158.3,69.2 158.3,71 148.8,71 148.8,77.1    159.6,77.1 159.6,78.9 146.8,78.9  "></polygon>
	<path class="st1" d="M174.8,72.5l-4-8.9l-4,8.9H174.8z M169.9,61.4h1.8l7.9,17.6h-2.1l-2-4.6h-9.5l-2.1,4.6h-2L169.9,61.4z"></path>
	<polygon class="st1" points="182.8,61.5 184.7,61.5 184.7,77.1 194.5,77.1 194.5,78.9 182.8,78.9  "></polygon>
	<polygon class="st1" points="198.3,63.3 192.4,63.3 192.4,61.5 206.1,61.5 206.1,63.3 200.3,63.3 200.3,78.9 198.3,78.9  "></polygon>
	<polygon class="st1" points="208.6,61.5 210.6,61.5 210.6,69.2 220.6,69.2 220.6,61.5 222.6,61.5 222.6,78.9 220.6,78.9    220.6,71.1 210.6,71.1 210.6,78.9 208.6,78.9  "></polygon>
	<path class="st1" d="M127,106.4l1.2-1.4c1.8,1.6,3.6,2.5,6,2.5c2.3,0,3.9-1.2,3.9-3v-0.1c0-1.6-0.9-2.5-4.5-3.3   c-4-0.9-5.9-2.2-5.9-5V96c0-2.7,2.4-4.8,5.7-4.8c2.5,0,4.4,0.7,6.1,2.1l-1.1,1.5c-1.6-1.3-3.2-1.9-5-1.9c-2.3,0-3.7,1.2-3.7,2.8v0   c0,1.6,0.9,2.6,4.7,3.4c3.9,0.8,5.7,2.3,5.7,4.9v0.1c0,3-2.5,4.9-6,4.9C131.4,109.2,129.1,108.2,127,106.4"></path>
	<path class="st1" d="M143,101.6V91.5h2v10c0,3.8,2,5.9,5.3,5.9c3.2,0,5.3-1.9,5.3-5.8V91.5h2v10c0,5.1-2.9,7.7-7.3,7.7   C145.9,109.2,143,106.6,143,101.6"></path>
	<polygon class="st1" points="161.8,91.5 163.8,91.5 170.1,101 176.5,91.5 178.5,91.5 178.5,108.9 176.5,108.9 176.5,94.8    170.2,104.1 170.1,104.1 163.7,94.8 163.7,108.9 161.8,108.9  "></polygon>
	<polygon class="st1" points="183.4,91.5 185.4,91.5 191.8,101 198.1,91.5 200.1,91.5 200.1,108.9 198.2,108.9 198.2,94.8    191.8,104.1 191.7,104.1 185.4,94.8 185.4,108.9 183.4,108.9  "></polygon>
	<rect x="205.6" y="91.5" class="st1" width="2" height="17.4"></rect>
	<polygon class="st1" points="210.5,91.5 210.5,93.3 216.4,93.3 216.4,108.9 218.5,108.9 218.5,93.3 224.4,93.3 224.4,91.5  "></polygon>
</g>
</svg>
